<?xml version="1.0" encoding="UTF-8" standalone="no"?>
<!-- Created with Inkscape (http://www.inkscape.org/) -->

<svg
   xmlns:dc="http://purl.org/dc/elements/1.1/"
   xmlns:cc="http://creativecommons.org/ns#"
   xmlns:rdf="http://www.w3.org/1999/02/22-rdf-syntax-ns#"
   xmlns:svg="http://www.w3.org/2000/svg"
   xmlns="http://www.w3.org/2000/svg"
   xmlns:xlink="http://www.w3.org/1999/xlink"
   xmlns:sodipodi="http://sodipodi.sourceforge.net/DTD/sodipodi-0.dtd"
   xmlns:inkscape="http://www.inkscape.org/namespaces/inkscape"
   width="190.2997mm"
   height="180.30882mm"
   viewBox="0 0 190.2997 180.30882"
   version="1.1"
   id="svg8"
   inkscape:version="0.92.2 (5c3e80d, 2017-08-06)"
   sodipodi:docname="parrot.svg">
  <defs
     id="defs2">
    <linearGradient
       inkscape:collect="always"
       id="linearGradient4586">
      <stop
         style="stop-color:#0088aa;stop-opacity:1;"
         offset="0"
         id="stop4582" />
      <stop
         style="stop-color:#0088aa;stop-opacity:0;"
         offset="1"
         id="stop4584" />
    </linearGradient>
    <linearGradient
       inkscape:collect="always"
       xlink:href="#linearGradient4586"
       id="linearGradient4588"
       x1="-15.709159"
       y1="165.27872"
       x2="66.77227"
       y2="165.27872"
       gradientUnits="userSpaceOnUse"
       gradientTransform="translate(136.07143,3.0238095)" />
  </defs>
  <sodipodi:namedview
     id="base"
     pagecolor="#ffffff"
     bordercolor="#666666"
     borderopacity="1.0"
     inkscape:pageopacity="0.0"
     inkscape:pageshadow="2"
     inkscape:zoom="0.49497475"
     inkscape:cx="536.39001"
     inkscape:cy="351.00628"
     inkscape:document-units="mm"
     inkscape:current-layer="layer1"
     showgrid="false"
     inkscape:measure-start="0,0"
     inkscape:measure-end="0,0"
     inkscape:snap-others="false"
     inkscape:snap-nodes="false"
     inkscape:snap-global="false"
     inkscape:window-width="1920"
     inkscape:window-height="1003"
     inkscape:window-x="0"
     inkscape:window-y="26"
     inkscape:window-maximized="1" />
  <metadata
     id="metadata5">
    <rdf:RDF>
      <cc:Work
         rdf:about="">
        <dc:format>image/svg+xml</dc:format>
        <dc:type
           rdf:resource="http://purl.org/dc/dcmitype/StillImage" />
        <dc:title />
      </cc:Work>
    </rdf:RDF>
  </metadata>
  <g
     inkscape:label="Layer 1"
     inkscape:groupmode="layer"
     id="layer1"
     transform="translate(-12.544004,-57.922972)">
    <path
       id="path21"
       style="fill:#55ddff;stroke:none;stroke-width:0.26237845;stroke-opacity:1"
       d="M 200.14143,166.85831 A 94.831083,89.958327 11.422728 0 1 89.37279,236.25388 94.831083,89.958327 11.422728 0 1 14.235959,129.29645 94.831083,89.958327 11.422728 0 1 125.0046,59.900888 94.831083,89.958327 11.422728 0 1 200.14143,166.85831 Z"
       inkscape:connector-curvature="0"
       inkscape:export-xdpi="96"
       inkscape:export-ydpi="96" />
    <path
       style="fill:#000000;stroke:none;stroke-width:2.18757105;stroke-opacity:1"
       d="m 323.99219,343.55664 c -0.85966,0.0158 -1.9056,0.10599 -3.00196,0.21484 -3.11774,-0.53153 -9.1682,0.22669 -19.41992,2.35938 -10.71608,2.22929 -21.94265,4.53335 -24.94922,5.12109 -6.3185,1.23529 -6.45034,2.06621 -6.60742,42.01367 -0.053,13.4916 -0.22387,27.76861 -0.3789,31.72657 -0.15505,3.95799 0.33997,7.31139 1.09765,7.45312 0.35916,0.067 2.10049,-1.77539 4.60742,-4.76562 0.10398,2.6573 0.52411,4.60784 1.09766,4.71484 0.75778,0.14143 7.54713,-8.02665 15.08789,-18.15234 5.53015,-7.42598 10.60718,-13.76483 13.20899,-16.58008 6.91366,3.31275 18.46638,10.82348 19.19921,12.89844 0.61188,1.73227 6.86026,8.05323 13.88672,14.04492 7.20961,6.14782 14.67568,14.91355 17.13672,20.12109 2.39853,5.07527 12.2838,24.0801 21.9668,42.23438 l 17.60547,33.00976 13.125,2.66992 c 7.2192,1.46926 18.08335,4.30802 24.14258,6.3086 10.67463,3.52441 11.09262,3.97232 13.41601,14.4082 1.31883,5.92373 2.84351,20.90416 3.38867,33.28906 1.57051,35.67992 4.07088,72.36051 6.17188,90.51758 0.58174,5.02745 1.64659,16.79326 2.36523,26.14453 0.7186,9.35131 1.81331,21.12139 2.43164,26.15625 0.61833,5.03483 1.82422,16.82772 2.68164,26.20704 0.85743,9.37931 2.17733,22.70193 2.93164,29.60546 0.75432,6.90346 1.40494,15.89488 1.44727,19.98047 0.0424,4.08563 0.59984,7.08212 1.23828,6.65821 0.41036,-0.2724 1.82223,-8.24455 3.66406,-19.91993 0.44442,5.20327 0.77542,10.38626 0.80469,13.21094 0.0424,4.08563 0.59984,7.08208 1.23828,6.6582 1.19161,-0.79101 10.52561,-63.90242 15.76563,-106.60156 1.05156,-8.56892 2.36811,-16.34634 3.47656,-21 1.41755,2.25694 3.00864,5.19259 4.56445,8.55078 11.49823,24.81861 16.02218,34.77232 20.50977,45.12305 2.39248,5.5183 4.72208,9.78756 5.17578,9.48633 0.2657,-0.17638 0.65145,-3.59152 1.03516,-8.42774 2.20312,4.93841 4.24886,8.65651 4.66992,8.37696 0.45365,-0.30116 1.26424,-9.48644 1.80078,-20.41211 0.88807,-18.08304 1.34424,-30.52381 3.53516,-96.34375 0.53313,-16.01596 0.79657,-22.69852 1.44335,-25.6211 6.3879,4.67157 20.02406,15.70698 35.26563,28.6211 20.424,17.30528 37.55051,31.1875 38.05859,30.84961 0.36538,-0.24299 -0.34144,-1.94379 -2.89062,-6.47852 5.10765,4.09024 8.38381,6.56994 8.59765,6.42774 0.85663,-0.56969 -3.50034,-8.10252 -26.18359,-45.25977 -7.22173,-11.82985 -21.26644,-35.07384 -42.73242,-70.72461 -2.21159,-3.67302 -11.30827,-18.69673 -20.21485,-33.38476 -8.90657,-14.68808 -20.92608,-34.6904 -26.70898,-44.45118 -5.7829,-9.76074 -11.38248,-18.93046 -12.44336,-20.375 -1.06087,-1.44449 -7.81121,-12.62877 -15.00195,-24.85547 -7.19067,-12.22673 -14.62348,-23.51017 -16.51563,-25.07421 -3.40187,-2.81205 -35.4261,-12.64775 -72.41211,-22.23829 -19.0796,-4.94734 -49.1977,-18.07524 -53.38867,-23.27148 -0.69451,-0.86113 -2.27058,-1.27451 -4.99023,-1.22461 z"
       transform="scale(0.26458333)"
       id="path25"
       inkscape:connector-curvature="0" />
    <path
       style="fill:url(#linearGradient4588);fill-opacity:1;stroke:none;stroke-width:0.76520282;stroke-opacity:1"
       d="m 137.29692,230.33353 c -1.19223,-1.56432 -4.68298,-6.47377 -7.75722,-10.90989 l -5.58953,-8.06564 2.07337,-14.443 c 1.14035,-7.94366 2.45391,-15.71834 2.91901,-17.27709 l 0.84564,-2.83409 4.09119,8.80161 c 2.51184,5.40387 4.27673,8.35623 4.57184,7.64791 0.26438,-0.63452 0.75332,-8.639 1.08654,-17.78773 0.33323,-9.14875 0.74638,-17.32075 0.91811,-18.16001 0.27552,-1.34642 1.47006,-0.59563 10.15447,6.38213 5.41321,4.34944 10.06376,7.76285 10.33453,7.58536 0.27078,-0.17748 -3.34432,-6.59887 -8.03353,-14.26976 -4.68921,-7.67087 -13.98392,-22.87483 -20.65491,-33.78658 -6.67099,-10.91173 -12.02231,-19.9095 -11.89182,-19.99502 0.13049,-0.0855 17.77929,5.598 39.21955,12.63009 21.44026,7.03209 39.55895,12.90443 40.26376,13.04966 0.96469,0.19862 1.53273,2.44424 2.29781,9.08264 4.07706,35.3761 -9.76112,64.59411 -40.10143,84.67044 -7.69869,5.09426 -19.94501,11.12183 -21.75901,10.70968 -0.45136,-0.10257 -1.79613,-1.46639 -2.98837,-3.03071 z"
       id="path33"
       inkscape:connector-curvature="0"
       inkscape:export-xdpi="96"
       inkscape:export-ydpi="96" />
  </g>
</svg>
